# xmcd CD database file
# Copyright (C) 1993-1998 Ti Kan
# 
# Track frame offsets:
#     182
#     20795
#     48625
#     80042
#     108617
#     129357
#     160207
#     197985
#     222372
#     253172
#     276432
# 
# Disc length: 4177 seconds
# 
# Revision: 1
# Processed by: cddbd v1.4b41PL1 Copyright (c) Steve Scherf et al.
# Submitted via: DiscPlay 4.0.4
# 
DISCID=ae104f0b
DTITLE=Liz McComb - Rock My Soul
DYEAR=1900
DGENRE=
TTITLE0=I Told Jesus, I would Be Alright If He Changed My Name
TTITLE1=Rock My Soul
TTITLE2=In The Upper Room
TTITLE3=Traveling Shoes
TTITLE4=Soul Say Yes
TTITLE5=At The Cross
TTITLE6=Motherless Child
TTITLE7=I Don't Know What I Would Do Without The Lord
TTITLE8=Humble Me
TTITLE9=Everytime I Feel The Spirit
TTITLE10=Deep River/Steal Away
EXTD=
EXTT0=
EXTT1=
EXTT2=
EXTT3=
EXTT4=
EXTT5=
EXTT6=
EXTT7=
EXTT8=
EXTT9=
EXTT10=
PLAYORDER=
